PathFileType	4	(X/Y/Z)	/Users/itak/Documents/Research/Walk-IL/dataset/trc/00553_00009.trc
DataRate	CameraRate	NumFrames	NumMarkers	Units	OrigDataRate	OrigDataStartFrame	OrigNumFrames
100.000000	100.000000	4	53	mm	100.000000	0	485
Frame#	Time	RPSI			LPSI			L3			STRN			T10			C7			CLAV			RBAK			LBAK			LSHO			LUPA			LAEL			LAOL			LWTS			LWPS			LFRA			LIFD			LHPS			LHTS			RSHO			RUPA			RAEL			RAOL			RWTS			RWPS			RFRA			RIFD			RHTS			RHPS			RBHD			LFHD			RFHD			LBHD			LHIP			RHIP			RASI			LASI			LKNE			LTHI			LANK			LTIP			LTOE			LMT1			LMT5			LHEE			RKNE			RTHI			RANK			RTIP			RTOE			RMT1			RMT5			RHEE			
		X1	Y1	Z1	X2	Y2	Z2	X3	Y3	Z3	X4	Y4	Z4	X5	Y5	Z5	X6	Y6	Z6	X7	Y7	Z7	X8	Y8	Z8	X9	Y9	Z9	X10	Y10	Z10	X11	Y11	Z11	X12	Y12	Z12	X13	Y13	Z13	X14	Y14	Z14	X15	Y15	Z15	X16	Y16	Z16	X17	Y17	Z17	X18	Y18	Z18	X19	Y19	Z19	X20	Y20	Z20	X21	Y21	Z21	X22	Y22	Z22	X23	Y23	Z23	X24	Y24	Z24	X25	Y25	Z25	X26	Y26	Z26	X27	Y27	Z27	X28	Y28	Z28	X29	Y29	Z29	X30	Y30	Z30	X31	Y31	Z31	X32	Y32	Z32	X33	Y33	Z33	X34	Y34	Z34	X35	Y35	Z35	X36	Y36	Z36	X37	Y37	Z37	X38	Y38	Z38	X39	Y39	Z39	X40	Y40	Z40	X41	Y41	Z41	X42	Y42	Z42	X43	Y43	Z43	X44	Y44	Z44	X45	Y45	Z45	X46	Y46	Z46	X47	Y47	Z47	X48	Y48	Z48	X49	Y49	Z49	X50	Y50	Z50	X51	Y51	Z51	X52	Y52	Z52	X53	Y53	Z53	

1	0	-972.2802734375	1019.408630371094	299.7621154785156	-962.8666381835938	1022.114562988281	166.1821594238281	-961.6199340820312	1102.787231445312	228.882568359375	-740.4658203125	1294.827026367188	231.8676147460938	-978.7120971679688	1228.434204101562	229.4427642822266	-940.3977661132812	1503.047485351562	245.6184692382812	-762.5108642578125	1406.790893554688	232.5550537109375	-1007.077087402344	1375.376953125	330.0972290039062	-973.0263061523438	1449.632934570312	154.8861999511719	-877.4288940429688	1477.68798828125	72.98063659667969	-886.76318359375	1352.796020507812	-7.709040641784668	-864.6220092773438	1130.817138671875	-36.26267623901367	-950.7930297851562	1121.621704101562	16.75763320922852	-777.42822265625	882.840576171875	1.154385924339294	-823.1724853515625	864.5939331054688	-71.36209106445312	-842.9605712890625	1044.341796875	-46.22691345214844	-789.4852294921875	711.92919921875	-8.82591438293457	-817.2882690429688	804.0840454101562	-64.73628997802734	-759.267333984375	810.4357299804688	-22.65043640136719	-878.4649658203125	1464.212890625	399.4574890136719	-896.645751953125	1398.691162109375	466.6648864746094	-897.57763671875	1108.8701171875	510.5163879394531	-952.4581909179688	1092.341186523438	483.1138305664062	-767.2219848632812	885.48291015625	471.9068908691406	-811.8905639648438	866.6695556640625	539.0595703125	-888.4860229492188	1054.120727539062	519.8605346679688	-760.974365234375	711.4151000976562	478.3617248535156	-741.35107421875	793.4434204101562	486.9081726074219	-796.9234008789062	791.56640625	536.2706298828125	-881.8289794921875	1681.971069335938	299.797119140625	-711.515869140625	1717.8876953125	185.8391265869141	-746.9829711914062	1713.814453125	324.8416442871094	-833.9528198242188	1685.90087890625	141.0423583984375	-833.9015502929688	936.9970092773438	41.30007934570312	-859.1092529296875	940.196533203125	427.2909851074219	-767.204345703125	966.299072265625	372.7711791992188	-754.7296752929688	959.4420166015625	95.79810333251953	-858.4803466796875	493.4990539550781	103.3066558837891	-836.5316772460938	656.370849609375	65.42439270019531	-952.0867309570312	33.78656387329102	113.4711990356445	-933.1470336914062	253.3154907226562	98.47815704345703	-742.1790771484375	37.56724548339844	169.422607421875	-813.7474975585938	41.27427291870117	205.0775909423828	-830.1953735351562	34.2734489440918	98.18431854248047	-1022.251098632812	37.91798782348633	168.3384246826172	-872.2445678710938	495.8848266601562	382.2634582519531	-832.7392578125	783.4745483398438	425.4403076171875	-975.5185546875	37.4253044128418	364.0360107421875	-883.3049926757812	354.5178833007812	370.3790893554688	-753.6387939453125	38.38865661621094	336.4609985351562	-815.0634765625	41.36312484741211	292.6002502441406	-842.8240356445312	35.10331726074219	394.0602111816406	-1027.565673828125	33.93235015869141	305.1019287109375	
2	0.01	-972.2679443359375	1019.385986328125	299.8104248046875	-962.9071655273438	1022.089721679688	166.2235565185547	-961.6764526367188	1102.750122070312	228.9614562988281	-740.6138916015625	1294.84375	231.8401794433594	-978.7940673828125	1228.389404296875	229.4927673339844	-940.5762939453125	1503.011108398438	245.6551513671875	-762.6199951171875	1406.8134765625	232.4872283935547	-1007.182434082031	1375.358764648438	330.1344909667969	-973.2275390625	1449.6044921875	154.9214019775391	-877.6044921875	1477.658935546875	72.98177337646484	-886.9772338867188	1352.721923828125	-7.701408863067627	-864.6115112304688	1130.779296875	-36.31533432006836	-950.8091430664062	1121.472534179688	16.7617015838623	-777.158935546875	882.93994140625	1.052866697311401	-822.869384765625	864.5794677734375	-71.39016723632812	-842.9171752929688	1044.30078125	-46.24148941040039	-788.9777221679688	711.9104614257812	-8.822794914245605	-816.8812866210938	804.147705078125	-64.79817962646484	-759.1098022460938	810.3450317382812	-22.64248085021973	-878.5541381835938	1464.267578125	399.4306030273438	-896.7105712890625	1398.7724609375	466.676025390625	-897.77880859375	1109.004150390625	510.700439453125	-952.516357421875	1092.397583007812	483.1895141601562	-767.7354125976562	885.4186401367188	472.2958984375	-812.2520751953125	866.7086791992188	539.336181640625	-888.6146850585938	1054.193237304688	519.9793701171875	-761.4616088867188	711.3394165039062	478.7670288085938	-741.8800659179688	793.3626098632812	487.2745666503906	-797.4144287109375	791.5853271484375	536.633544921875	-881.8875122070312	1682.004028320312	299.70263671875	-711.5819091796875	1717.813232421875	185.6163787841797	-746.9803466796875	1713.800659179688	324.6903686523438	-834.0379638671875	1685.82958984375	140.9239654541016	-834.0119018554688	937.0271606445312	41.31042098999023	-859.0145874023438	940.1968383789062	427.2751770019531	-767.1765747070312	966.30322265625	372.7489318847656	-754.8092651367188	959.447265625	95.79904174804688	-858.482666015625	493.5021667480469	103.3088073730469	-836.5379028320312	656.3773193359375	65.41971588134766	-952.091796875	33.78892517089844	113.4689788818359	-933.1676025390625	253.3240203857422	98.45842742919922	-742.1766357421875	37.56733322143555	169.4246215820312	-813.7594604492188	41.26782608032227	205.0896911621094	-830.2027587890625	34.27595138549805	98.18779754638672	-1022.251892089844	37.90796279907227	168.3379516601562	-872.2373046875	495.8764953613281	382.2681274414062	-832.66357421875	783.4662475585938	425.4283142089844	-975.5115966796875	37.40577697753906	364.0346374511719	-883.3124389648438	354.5148315429688	370.3904418945312	-753.6353759765625	38.3848991394043	336.4625549316406	-815.1024780273438	41.35378265380859	292.6304931640625	-842.8231811523438	35.10720062255859	394.0654907226562	-1027.559204101562	33.92243194580078	305.1087341308594	
3	0.02	-972.2569580078125	1019.35791015625	299.8677062988281	-962.9668579101562	1022.061889648438	166.2796783447266	-961.7655639648438	1102.701904296875	229.0634918212891	-740.7928466796875	1294.871948242188	231.8089599609375	-978.9102172851562	1228.333129882812	229.5493621826172	-940.8026123046875	1502.969482421875	245.6921844482422	-762.7685546875	1406.843017578125	232.3985137939453	-1007.323303222656	1375.336059570312	330.177978515625	-973.4769287109375	1449.56640625	154.9553985595703	-877.8428344726562	1477.618041992188	72.97151184082031	-887.2446899414062	1352.629028320312	-7.703174591064453	-864.59375	1130.729858398438	-36.37385559082031	-950.8043212890625	1121.285278320312	16.76044464111328	-776.7778930664062	883.0859985351562	0.9431699514389038	-822.4795532226562	864.5625610351562	-71.41316986083984	-842.841796875	1044.25048828125	-46.24870681762695	-788.3464965820312	711.8939819335938	-8.788616180419922	-816.3447265625	804.2147216796875	-64.84371948242188	-758.8556518554688	810.2537231445312	-22.60926055908203	-878.6879272460938	1464.332763671875	399.380126953125	-896.800048828125	1398.869873046875	466.6820678710938	-898.0125732421875	1109.15673828125	510.91357421875	-952.60107421875	1092.472534179688	483.2881469726562	-768.348388671875	885.343994140625	472.7657165527344	-812.6807250976562	866.7603759765625	539.6713256835938	-888.7786865234375	1054.279663085938	520.130615234375	-762.0240478515625	711.2559204101562	479.2655334472656	-742.4898071289062	793.2807006835938	487.7120971679688	-797.9722900390625	791.6106567382812	537.0604248046875	-881.966064453125	1682.040283203125	299.5934753417969	-711.6952514648438	1717.72119140625	185.345458984375	-746.9944458007812	1713.791381835938	324.4974975585938	-834.1675415039062	1685.751586914062	140.7772674560547	-834.1699829101562	937.06103515625	41.32188415527344	-858.9037475585938	940.1935424804688	427.254150390625	-767.1469116210938	966.3095092773438	372.7178344726562	-754.9472045898438	959.4381713867188	95.82215881347656	-858.4949951171875	493.5076904296875	103.312858581543	-836.557861328125	656.383056640625	65.41600799560547	-952.0955200195312	33.79077529907227	113.4684066772461	-933.1687622070312	253.3236846923828	98.45476531982422	-742.1743774414062	37.56733703613281	169.4266052246094	-813.7738037109375	41.25910186767578	205.1025390625	-830.2102661132812	34.27906799316406	98.19002532958984	-1022.252685546875	37.89813995361328	168.3382415771484	-872.22802734375	495.8661804199219	382.2710876464844	-832.5770874023438	783.4562377929688	425.4149169921875	-975.5055541992188	37.38730239868164	364.0350646972656	-883.317138671875	354.5106201171875	370.3994445800781	-753.6307373046875	38.38016510009766	336.4622802734375	-815.1444091796875	41.34096908569336	292.6603088378906	-842.8253173828125	35.11228179931641	394.0728759765625	-1027.550170898438	33.90979766845703	305.1144104003906	
4	0.03	-972.2504272460938	1019.326293945312	299.9295043945312	-963.0469360351562	1022.03369140625	166.3493499755859	-961.8904418945312	1102.64404296875	229.1837921142578	-740.9949340820312	1294.912109375	231.7744445800781	-979.0620727539062	1228.2685546875	229.6077728271484	-941.0699462890625	1502.92626953125	245.7235717773438	-762.9564819335938	1406.878540039062	232.2915802001953	-1007.497680664062	1375.309326171875	330.2235412597656	-973.7658081054688	1449.518310546875	154.9821319580078	-878.1431274414062	1477.564575195312	72.94580841064453	-887.5551147460938	1352.521240234375	-7.720152854919434	-864.5654907226562	1130.669799804688	-36.43233489990234	-950.7674560546875	1121.067749023438	16.75123023986816	-776.2825927734375	883.2788696289062	0.8424209356307983	-822.0120849609375	864.5458374023438	-71.42190551757812	-842.72705078125	1044.193969726562	-46.24304962158203	-787.6146240234375	711.8850708007812	-8.708977699279785	-815.6860961914062	804.2777099609375	-64.85637664794922	-758.4869995117188	810.1793212890625	-22.54001235961914	-878.8692626953125	1464.404541015625	399.3023071289062	-896.914794921875	1398.977294921875	466.6788330078125	-898.2598876953125	1109.315551757812	511.1362609863281	-952.7135009765625	1092.564697265625	483.4066162109375	-769.0089111328125	885.2675170898438	473.2782592773438	-813.1445922851562	866.8236694335938	540.0435791015625	-888.9714965820312	1054.374267578125	520.3082275390625	-762.6140747070312	711.174072265625	479.8280944824219	-743.1228637695312	793.2127685546875	488.1877136230469	-798.5418701171875	791.6428833007812	537.516845703125	-882.0662231445312	1682.076293945312	299.4780578613281	-711.8667602539062	1717.616577148438	185.0419006347656	-747.0348510742188	1713.79150390625	324.2698364257812	-834.3492431640625	1685.675170898438	140.6083679199219	-834.3807983398438	937.0946044921875	41.33395767211914	-858.785888671875	940.1853637695312	427.228515625	-767.1190795898438	966.318115234375	372.677001953125	-755.16259765625	959.4051513671875	95.879638671875	-858.52001953125	493.5173645019531	103.3194885253906	-836.5953979492188	656.3873291015625	65.4134521484375	-952.0983276367188	33.79214477539062	113.4694137573242	-933.1516723632812	253.3143005371094	98.46707153320312	-742.1729125976562	37.56731414794922	169.428466796875	-813.78857421875	41.24939727783203	205.1142578125	-830.2174072265625	34.28255081176758	98.1905517578125	-1022.253479003906	37.88921737670898	168.3396759033203	-872.217529296875	495.8547058105469	382.2711486816406	-832.4873657226562	783.4454956054688	425.401123046875	-975.5009155273438	37.37126922607422	364.0368041992188	-883.3184814453125	354.5054626464844	370.4046020507812	-753.6258544921875	38.37526321411133	336.460205078125	-815.1868896484375	41.32434844970703	292.6865539550781	-842.8289794921875	35.11774444580078	394.0803527832031	-1027.539428710938	33.89530563354492	305.117919921875	
